<svg width="24" height="24" viewBox="0 0 24 24" fill="none" xmlns="http://www.w3.org/2000/svg">
<path d="M16.8059 12.5519C16.8568 12.5519 16.9074 12.5519 16.9583 12.5566V6.42088H2.00488V17.0301C2.0056 17.8712 2.68729 18.5527 3.52839 18.5536H11.9815C11.9054 18.2048 11.8668 17.8488 11.866 17.4918C11.8691 14.7648 14.079 12.555 16.8059 12.5519ZM5.44432 10.6637H12.6002C12.7786 10.6637 12.9234 10.8084 12.9234 10.9869C12.9234 11.1653 12.7786 11.3101 12.6002 11.3101H5.44432C5.26579 11.3101 5.12115 11.1653 5.12115 10.9869C5.12115 10.8084 5.26579 10.6637 5.44432 10.6637ZM9.72847 14.3109H5.44432C5.26579 14.3109 5.12115 14.1661 5.12115 13.9878C5.12115 13.8092 5.26579 13.6646 5.44432 13.6646H9.72847C9.90701 13.6646 10.0516 13.8092 10.0516 13.9878C10.0516 14.1661 9.90701 14.3109 9.72847 14.3109Z" fill="#BDC4DB"/>
<path d="M16.8053 13.1982C14.434 13.1982 12.5117 15.1205 12.5117 17.4918C12.5117 19.863 14.434 21.7853 16.8053 21.7853C19.1765 21.7853 21.0988 19.863 21.0988 17.4918C21.0968 15.1214 19.1756 13.2002 16.8053 13.1982ZM19.4876 16.4021L16.422 19.3337C16.3622 19.3904 16.2828 19.4218 16.2006 19.4216C16.1147 19.4209 16.0323 19.388 15.9697 19.3292L14.2291 17.5841C14.103 17.4579 14.103 17.2532 14.2291 17.1271C14.3553 17.0009 14.56 17.0009 14.6863 17.1271L16.2051 18.6459L19.0444 15.936C19.106 15.8763 19.189 15.8436 19.2748 15.8453C19.3607 15.8471 19.4422 15.8829 19.5015 15.9452C19.6222 16.0757 19.616 16.2792 19.4876 16.4021Z" fill="#BDC4DB"/>
<path d="M16.9581 4.52351C16.9572 3.68241 16.2757 3.00072 15.4346 3H13.4032V4.02018C13.4032 4.19872 13.2586 4.34335 13.0801 4.34335C12.9015 4.34335 12.7569 4.19872 12.7569 4.02018V3H6.2012V4.02018C6.2012 4.19872 6.05656 4.34335 5.87803 4.34335C5.69949 4.34335 5.55486 4.19872 5.55486 4.02018V3H3.52351C2.68241 3.00072 2.0009 3.68241 2 4.52351V5.77922H16.9534V4.52351H16.9581Z" fill="#BDC4DB"/>
</svg>
