<svg width="24" height="24" viewBox="0 0 24 24" fill="none" xmlns="http://www.w3.org/2000/svg">
<path d="M12.603 10.7504V6.30645C13.5536 6.4668 14.45 6.85689 15.2163 7.44268C15.3691 7.54745 15.5484 7.60428 15.734 7.60678C16.3286 7.60678 16.8134 7.1283 16.8197 6.53368C16.8209 6.27868 16.7212 6.03375 16.542 5.85195C15.4347 4.90381 14.046 4.34454 12.5904 4.26122V2.77147C12.5904 2.34599 12.2457 2.00134 11.8202 2.00134C11.8114 2.00009 11.8025 2.00009 11.7937 2.00009C11.3619 1.99376 11.0059 2.33845 10.9996 2.77147V4.21071C8.159 4.41271 6.2274 6.16758 6.2274 8.50317C6.2274 11.369 8.66401 12.1644 10.9996 12.7956V17.8456C9.76738 17.6802 8.60592 17.1689 7.65399 16.3685C7.47473 16.2258 7.2525 16.1463 7.02273 16.1413C6.44073 16.1817 5.99255 16.669 6.00009 17.2523C5.99884 17.5073 6.09857 17.7522 6.27783 17.934C7.582 19.1081 9.25859 19.7836 11.0122 19.8404V21.2291C11.0122 21.2379 11.0134 21.2468 11.0134 21.2556C11.0336 21.6874 11.401 22.0207 11.8328 21.9992C12.2582 21.9992 12.6029 21.6546 12.6029 21.2291V19.8151C16.0495 19.5879 17.4382 17.4921 17.4382 15.2702C17.4383 12.2907 14.9386 11.3817 12.603 10.7504ZM11.0122 10.3464C9.63613 9.94241 8.56303 9.5258 8.56303 8.35168C8.56303 7.17756 9.53515 6.33168 11.0122 6.21809V10.3464ZM12.603 17.8708V13.2754C14.0296 13.6794 15.1406 14.2222 15.1279 15.5479C15.1279 16.5074 14.4714 17.6436 12.603 17.8708Z" fill="#BDC4DB"/>
</svg>
