<svg width="24" height="24" viewBox="0 0 24 24" fill="none" xmlns="http://www.w3.org/2000/svg">
<g clip-path="url(#clip0)">
<path d="M4 12C5.10457 12 6 11.1046 6 10C6 8.89543 5.10457 8 4 8C2.89543 8 2 8.89543 2 10C2 11.1046 2.89543 12 4 12Z" fill="#BDC4DB"/>
<path d="M6.67 13.4C5.66 14.16 5 15.38 5 16.75V17H0.75C0.34 17 0 16.66 0 16.25V15.75C0 14.23 1.23 13 2.75 13H5.25C5.77 13 6.26 13.15 6.67 13.4Z" fill="#BDC4DB"/>
<path d="M20 12C21.1046 12 22 11.1046 22 10C22 8.89543 21.1046 8 20 8C18.8954 8 18 8.89543 18 10C18 11.1046 18.8954 12 20 12Z" fill="#BDC4DB"/>
<path d="M24.0001 15.75V16.25C24.0001 16.66 23.6601 17 23.2501 17H19.0001V16.75C19.0001 15.38 18.3401 14.16 17.3301 13.4C17.7401 13.15 18.2301 13 18.7501 13H21.2501C22.7701 13 24.0001 14.23 24.0001 15.75Z" fill="#BDC4DB"/>
<path d="M12 12.5C13.6569 12.5 15 11.1569 15 9.5C15 7.84315 13.6569 6.5 12 6.5C10.3431 6.5 9 7.84315 9 9.5C9 11.1569 10.3431 12.5 12 12.5Z" fill="#BDC4DB"/>
<path d="M14.75 14H9.25C7.733 14 6.5 15.233 6.5 16.75V18.25C6.5 18.664 6.836 19 7.25 19H16.75C17.164 19 17.5 18.664 17.5 18.25V16.75C17.5 15.233 16.267 14 14.75 14Z" fill="#BDC4DB"/>
</g>
<defs>
<clipPath id="clip0">
<rect width="24" height="24" fill="white"/>
</clipPath>
</defs>
</svg>
