<svg width="24" height="24" viewBox="0 0 24 24" fill="none" xmlns="http://www.w3.org/2000/svg">
<path d="M18.3131 4.03281L7.59274 7.61315C7.33613 7.69883 7.16309 7.93904 7.16309 8.2096V14.021C7.16309 14.2915 7.33613 14.5318 7.59274 14.6175L18.3131 18.1978C18.7198 18.3337 19.1411 18.0305 19.1411 17.6013V4.62926C19.1412 4.20043 18.7203 3.89686 18.3131 4.03281Z" fill="#BDC4DB"/>
<path d="M20.3984 8.58482V13.6458C22.527 12.6355 22.5399 9.60129 20.3984 8.58482Z" fill="#BDC4DB"/>
<path d="M5.90534 14.021C5.90534 7.75923 5.8636 8.00169 6.01428 7.57742H5.53786C3.58706 7.57742 2 9.16448 2 11.1153C2 13.0661 3.58706 14.6531 5.53786 14.6531H6.01428C5.94362 14.4541 5.90534 14.2411 5.90534 14.021Z" fill="#BDC4DB"/>
<path d="M8.94794 16.3959L7.49545 15.9108C5.38284 15.9108 5.34771 15.922 4.96777 15.8767L5.74985 19.5013C5.8123 19.7908 6.06835 19.9975 6.36453 19.9975H8.94605C9.34788 19.9975 9.64496 19.6263 9.56074 19.236L8.94794 16.3959Z" fill="#BDC4DB"/>
</svg>
