<svg width="24" height="24" viewBox="0 0 24 24" fill="none" xmlns="http://www.w3.org/2000/svg">
<path d="M20.125 3.375H12.625V2.625C12.625 2.27083 12.3542 2 12 2C11.6458 2 11.375 2.27083 11.375 2.625V3.375H3.875C3.52083 3.375 3.25 3.64583 3.25 4V14.4792H20.75V4C20.75 3.64583 20.4792 3.375 20.125 3.375Z" fill="#BDC4DB"/>
<path d="M21.375 15.5208H2.625C2.29167 15.5208 2 15.8125 2 16.1458C2 16.5 2.27083 16.7708 2.625 16.7708H10.7292L7.04167 20.6667C6.8125 20.9167 6.8125 21.3125 7.0625 21.5417C7.3125 21.7708 7.70833 21.7708 7.9375 21.5208L11.375 17.8958V21.375C11.375 21.7292 11.6458 22 12 22C12.3542 22 12.625 21.7292 12.625 21.375V17.8958L16.0625 21.5208C16.2917 21.7708 16.6875 21.7917 16.9375 21.5417C17.1875 21.3125 17.2083 20.9167 16.9583 20.6667L13.2708 16.7708H21.375C21.7292 16.7708 22 16.5 22 16.1458C22 15.7917 21.7292 15.5208 21.375 15.5208Z" fill="#BDC4DB"/>
</svg>
