<svg width="24" height="24" viewBox="0 0 24 24" fill="none" xmlns="http://www.w3.org/2000/svg">
<path d="M21.8443 7.21984C21.6108 6.35181 20.9264 5.66756 20.0585 5.43383C18.4729 5 12.1306 5 12.1306 5C12.1306 5 5.78857 5 4.20302 5.41738C3.35181 5.65086 2.65074 6.35194 2.41726 7.21984C2 8.80526 2 12.0932 2 12.0932C2 12.0932 2 15.3978 2.41726 16.9666C2.65099 17.8345 3.33512 18.5188 4.20314 18.7525C5.80526 19.1864 12.1309 19.1864 12.1309 19.1864C12.1309 19.1864 18.4729 19.1864 20.0585 18.7691C20.9265 18.5355 21.6108 17.8512 21.8445 16.9833C22.2616 15.3978 22.2616 12.1099 22.2616 12.1099C22.2616 12.1099 22.2783 8.80526 21.8443 7.21984ZM10.1114 15.1308V9.05569L15.3853 12.0932L10.1114 15.1308Z" fill="#BDC4DB"/>
</svg>
