<svg width="271" height="212" viewBox="0 0 271 212" fill="none" xmlns="http://www.w3.org/2000/svg">
<rect width="271" height="212" fill="#E5E5E5"/>
<rect x="-978" y="-519" width="1440" height="2302" rx="12" fill="white"/>
<rect opacity="0.05" x="-978" y="-254" width="1440" height="2037" rx="4" fill="#F5F6F9"/>
<rect x="-649.5" y="-230.5" width="1089" height="1997" rx="3.5" fill="white" stroke="#EFEFEF"/>
<g clip-path="url(#clip0)">
<path d="M85.1217 40.1017L48.3198 64.7198L84.5694 118.91L121.371 94.2917L85.1217 40.1017Z" fill="#F5F5F5"/>
<path d="M102.354 91.7285L101.937 94.3131L83.6414 91.676L84.0579 89.0914L102.354 91.7285Z" fill="#E0E0E0"/>
<path d="M93.1403 82.5084L95.7643 82.8856L92.8549 100.899L90.2276 100.519L93.1403 82.5084Z" fill="#E0E0E0"/>
<path d="M76.304 59.614C76.3303 59.6501 72.6435 62.1658 68.0679 65.2228C63.4923 68.2798 59.763 70.7332 59.7367 70.6938C59.7105 70.6545 63.3972 68.142 67.9728 65.0818C72.5484 62.0215 76.2614 59.5746 76.304 59.614Z" fill="#E0E0E0"/>
<path d="M89.8242 56.2159C89.8504 56.2553 83.7168 60.4012 76.1269 65.4786C68.537 70.5561 62.3509 74.6397 62.3312 74.6036C62.3115 74.5675 68.432 70.415 76.0318 65.3376C83.6315 60.2602 89.7979 56.1766 89.8242 56.2159Z" fill="#E0E0E0"/>
<path d="M92.5367 60.27C92.563 60.3094 86.4294 64.4586 78.8395 69.536C71.2495 74.6134 65.0635 78.697 65.0438 78.6577C65.0241 78.6183 71.1511 74.4724 78.7443 69.3917C86.3375 64.311 92.5105 60.2306 92.5367 60.27Z" fill="#E0E0E0"/>
<path d="M95.2493 64.3274C95.2755 64.3667 89.1419 68.5159 81.552 73.5901C73.9621 78.6643 67.776 82.7544 67.776 82.715C67.776 82.6757 73.8801 78.5265 81.4733 73.449C89.0665 68.3716 95.223 64.288 95.2493 64.3274Z" fill="#E0E0E0"/>
<path d="M97.952 68.3847C97.9783 68.4241 91.8447 72.57 84.2547 77.6474C76.6648 82.7249 70.4787 86.8085 70.4623 86.7691C70.4459 86.7298 76.5763 82.5838 84.176 77.5064C91.7758 72.429 97.952 68.3454 97.952 68.3847Z" fill="#E0E0E0"/>
<path d="M208.183 76.4124L177.275 97.0877L207.718 142.597L238.626 121.922L208.183 76.4124Z" fill="#F5F5F5"/>
<path d="M222.658 119.779L222.307 121.95L206.94 119.736L207.294 117.565L222.658 119.779Z" fill="#E0E0E0"/>
<path d="M214.92 112.035L217.124 112.353L214.681 127.48L212.473 127.162L214.92 112.035Z" fill="#E0E0E0"/>
<path d="M200.767 92.824C200.793 92.8634 197.7 94.979 193.856 97.5472C190.012 100.115 186.876 102.169 186.85 102.139C186.824 102.11 189.92 99.9875 193.761 97.416C197.602 94.8445 200.741 92.7682 200.767 92.824Z" fill="#E0E0E0"/>
<path d="M212.132 89.954C212.158 89.9934 207.012 93.4833 200.652 97.744C194.292 102.005 189.087 105.436 189.061 105.396C189.034 105.357 194.181 101.867 200.541 97.603C206.901 93.339 212.096 89.9147 212.132 89.954Z" fill="#E0E0E0"/>
<path d="M214.412 93.3586C214.438 93.398 209.292 96.8879 202.932 101.152C196.572 105.416 191.366 108.84 191.34 108.801C191.314 108.762 196.444 105.288 202.82 101.024C209.197 96.76 214.392 93.3226 214.412 93.3586Z" fill="#E0E0E0"/>
<path d="M216.688 96.76C216.714 96.7994 211.565 100.289 205.208 104.553C198.851 108.817 193.643 112.242 193.616 112.202C193.59 112.163 198.737 108.676 205.096 104.409C211.456 100.142 216.665 96.7272 216.688 96.76Z" fill="#E0E0E0"/>
<path d="M218.984 100.174C219.01 100.214 213.864 103.7 207.504 107.964C201.144 112.228 195.939 115.653 195.913 115.617C195.886 115.581 201.033 112.087 207.393 107.823C213.752 103.559 218.941 100.135 218.984 100.174Z" fill="#E0E0E0"/>
<path d="M159.285 42.0953L125.561 24.058L99.0016 73.7159L132.726 91.7532L159.285 42.0953Z" fill="#F5F5F5"/>
<path d="M126.954 76.2173L124.815 76.9488L119.384 61.9362L121.525 61.2015L126.954 76.2173Z" fill="#E0E0E0"/>
<path d="M130.234 65.4458L131.014 67.6008L116.104 72.7078L115.323 70.5528L130.234 65.4458Z" fill="#E0E0E0"/>
<path d="M140.828 43.296C140.802 43.3452 137.384 41.5674 133.189 39.3272C128.994 37.087 125.619 35.2272 125.645 35.178C125.671 35.1288 129.092 36.9066 133.287 39.1468C137.483 41.387 140.854 43.2435 140.828 43.296Z" fill="#E0E0E0"/>
<path d="M148.923 52.2274C148.897 52.2766 143.236 49.2984 136.279 45.5789C129.322 41.8594 123.707 38.8024 123.733 38.7532C123.759 38.704 129.417 41.679 136.374 45.4018C143.331 49.1246 148.949 52.1782 148.923 52.2274Z" fill="#E0E0E0"/>
<path d="M146.936 55.9437C146.909 55.9929 141.248 53.0179 134.291 49.2951C127.334 45.5723 121.719 42.5186 121.745 42.4694C121.771 42.4202 127.429 45.3985 134.386 49.118C141.343 52.8375 146.962 55.8945 146.936 55.9437Z" fill="#E0E0E0"/>
<path d="M144.948 59.6599C144.922 59.7091 139.26 56.7341 132.303 53.0146C125.347 49.2951 119.731 46.248 119.757 46.1889C119.784 46.1299 125.442 49.1147 132.399 52.8342C139.355 56.5537 144.974 59.6107 144.948 59.6599Z" fill="#E0E0E0"/>
<path d="M142.96 63.3762C142.934 63.4254 137.273 60.4504 130.316 56.7309C123.359 53.0114 117.74 49.9544 117.77 49.9052C117.799 49.856 123.454 52.831 130.411 56.5505C137.368 60.27 142.986 63.327 142.96 63.3762Z" fill="#E0E0E0"/>
<path opacity="0.2" d="M143.134 0H142.288V14.4254H143.134V0Z" fill="black"/>
<path d="M122.955 31.8783H162.466C162.466 31.8783 158.819 14.432 142.412 14.432C127.82 14.432 122.955 31.8783 122.955 31.8783Z" fill="#FF725E"/>
<path d="M143.134 0H142.288V14.4254H143.134V0Z" fill="#FF725E"/>
<path d="M230.684 144.264C230.684 144.31 188.29 144.35 136.003 144.35C83.7168 144.35 41.3163 144.32 41.3163 144.264C41.3163 144.208 83.7037 144.179 136.003 144.179C188.303 144.179 230.684 144.215 230.684 144.264Z" fill="#263238"/>
<path d="M51.7991 123.722C52.3536 123.762 52.8944 123.913 53.3892 124.167C53.884 124.42 54.3226 124.771 54.6789 125.198C55.3874 126.056 55.889 127.066 56.1451 128.15C56.6994 130.223 56.3583 132.673 55.7679 134.736C53.5244 133.932 52.1369 131.538 51.5039 130.278C50.5199 128.291 49.9328 124.092 51.7893 123.718" fill="#FF725E"/>
<path d="M58.9987 137.252C58.6618 136.729 58.4692 136.127 58.4404 135.506C58.4116 134.885 58.5476 134.267 58.8347 133.716C59.1308 133.17 59.5327 132.688 60.0171 132.299C60.5014 131.91 61.0584 131.621 61.6555 131.449C62.2033 131.279 62.8396 131.21 63.3152 131.528C63.5296 131.69 63.6966 131.907 63.7987 132.156C63.9008 132.404 63.9343 132.676 63.8958 132.942C63.8097 133.475 63.5832 133.975 63.2398 134.391C62.1475 135.871 60.8224 137.101 58.9758 137.252" fill="#FF725E"/>
<path d="M59.248 144.182C59.1993 144.043 59.1652 143.899 59.1463 143.753C59.0873 143.444 59.0085 143.047 58.9134 142.572C58.619 141.269 58.537 139.928 58.6707 138.6C58.8254 137.265 59.3338 135.995 60.1434 134.923C60.3908 134.602 60.676 134.312 60.9929 134.06C61.079 133.992 61.1688 133.928 61.2619 133.87C61.2915 133.845 61.3247 133.825 61.3603 133.811C60.9454 134.165 60.5664 134.56 60.2287 134.988C59.4618 136.062 58.9788 137.312 58.8249 138.623C58.6149 140.151 58.8741 141.552 59.0249 142.559C59.1037 143.06 59.1693 143.467 59.2053 143.749C59.2312 143.892 59.2454 144.037 59.248 144.182Z" fill="#263238"/>
<path d="M52.5207 126.88C52.5581 126.932 52.589 126.988 52.6125 127.048C52.6716 127.179 52.7503 127.343 52.8421 127.549C53.0422 127.986 53.321 128.619 53.6589 129.403C54.3345 130.974 55.2398 133.158 56.1845 135.592C57.1291 138.026 57.9327 140.246 58.4805 141.863C58.7625 142.67 58.9823 143.326 59.1365 143.782C59.2053 143.999 59.2578 144.172 59.3005 144.307C59.3239 144.367 59.3404 144.43 59.3497 144.494C59.3164 144.438 59.29 144.379 59.2709 144.317C59.2217 144.186 59.1594 144.015 59.0774 143.802L58.3853 141.899C57.7982 140.295 56.9782 138.078 56.0369 135.648C55.0955 133.217 54.2033 131.026 53.5539 129.445C53.2259 128.668 52.9733 128.035 52.7864 127.572C52.7011 127.362 52.6322 127.195 52.5797 127.061C52.5551 127.002 52.5353 126.942 52.5207 126.88Z" fill="#263238"/>
<path d="M56.5813 139.597C55.9064 138.473 54.9738 137.526 53.8605 136.834C52.7471 136.143 51.4851 135.726 50.1788 135.618C49.5228 135.572 48.7159 135.684 48.4207 136.274C48.1255 136.865 48.5191 137.586 48.9717 138.065C49.9335 139.071 51.1715 139.77 52.5298 140.073C53.8881 140.377 55.3058 140.272 56.6043 139.771" fill="#FF725E"/>
<path d="M51.189 137.396C51.3281 137.389 51.4675 137.395 51.6056 137.412C51.7673 137.421 51.9283 137.44 52.0877 137.468C52.2747 137.504 52.4944 137.524 52.724 137.589C52.9807 137.644 53.2337 137.714 53.4817 137.799C53.769 137.892 54.0505 138.001 54.3247 138.127C54.9553 138.41 55.5517 138.763 56.1024 139.18C56.6469 139.607 57.14 140.096 57.5719 140.637C57.7584 140.872 57.9304 141.118 58.0869 141.375C58.2283 141.596 58.3575 141.825 58.4739 142.06C58.5724 142.252 58.66 142.449 58.7363 142.65C58.8021 142.8 58.8579 142.953 58.9036 143.11C58.9522 143.24 58.9884 143.376 59.0118 143.513C58.9757 143.513 58.8183 142.949 58.3755 142.109C58.2549 141.884 58.1224 141.665 57.9786 141.453C57.8188 141.205 57.6458 140.965 57.4604 140.735C56.6025 139.675 55.5084 138.83 54.2656 138.268C53.9803 138.144 53.708 138.026 53.4424 137.94C53.1985 137.852 52.9499 137.776 52.6978 137.714C51.7794 137.462 51.1857 137.432 51.189 137.396Z" fill="#263238"/>
<path d="M111.072 76.9291L99.4608 136.56L97.952 144.366L175.36 143.992C178.837 143.976 181.92 140.889 183.032 136.304L196.762 80.0091C197.612 76.529 195.748 72.9079 193.111 72.9111L114.746 72.9931C113.04 72.9899 111.512 74.6036 111.072 76.9291Z" fill="#FF725E"/>
<g opacity="0.5">
<path opacity="0.5" d="M111.072 76.9291L99.4608 136.56L97.952 144.366L175.36 143.992C178.837 143.976 181.92 140.889 183.032 136.304L196.762 80.0091C197.612 76.529 195.748 72.9079 193.111 72.9111L114.746 72.9931C113.04 72.9899 111.512 74.6036 111.072 76.9291Z" fill="black"/>
</g>
<path d="M167.944 132.512L159.744 66.4495C159.416 63.7435 157.254 61.723 154.706 61.7329L136.731 61.7886C136.063 61.7962 135.404 61.9396 134.793 62.2103C134.183 62.481 133.633 62.8732 133.179 63.363L124.651 72.4388L74.664 72.7078C71.6103 72.7242 69.2618 75.6171 69.6653 78.8643L77.2782 139.922C77.6062 142.624 79.7677 144.641 82.3097 144.638L169.443 144.464C179.145 144.664 180.073 141.801 180.073 141.801C168.934 144.264 167.944 132.528 167.944 132.512Z" fill="#FF725E"/>
<g opacity="0.5">
<path opacity="0.5" d="M130.372 119.3L127.433 122.456L104.801 102.093L107.74 98.9379L130.372 119.3Z" fill="white"/>
<path opacity="0.5" d="M126.203 98.2393L129.45 101.162L108.973 123.154L105.722 120.232L126.203 98.2393Z" fill="white"/>
</g>
<path d="M180.385 34.0398C180.279 33.9951 180.188 33.9211 180.122 33.8264C180.056 33.7317 180.019 33.6203 180.014 33.5052L179.883 30.4614C179.879 30.3668 179.896 30.2724 179.934 30.1858C179.972 30.0991 180.03 30.0225 180.103 29.962C180.176 29.9016 180.262 29.8589 180.354 29.8374C180.446 29.8159 180.542 29.8162 180.634 29.8382C180.888 29.893 181.151 29.8953 181.406 29.8451C181.661 29.7949 181.903 29.6932 182.117 29.5462C182.314 29.4214 182.484 29.2574 182.615 29.0645C182.747 28.8716 182.837 28.6538 182.881 28.4245C182.911 28.1923 182.894 27.9566 182.83 27.7312C182.767 27.5059 182.66 27.2955 182.514 27.1125C182.36 26.9043 182.167 26.7285 181.945 26.5951C181.723 26.4617 181.477 26.3734 181.221 26.3351C180.705 26.3064 180.195 26.4527 179.772 26.7504C179.349 27.048 179.039 27.4795 178.893 27.9751C178.844 28.1253 178.739 28.2508 178.599 28.3254C178.46 28.4001 178.297 28.4181 178.145 28.3759C177.993 28.3336 177.863 28.2342 177.782 28.0985C177.702 27.9627 177.676 27.801 177.712 27.6471C177.935 26.8676 178.42 26.1887 179.085 25.7246C179.749 25.2604 180.554 25.0394 181.362 25.0986C181.783 25.1546 182.189 25.2947 182.554 25.5105C182.92 25.7263 183.239 26.0135 183.491 26.3548C183.737 26.6712 183.916 27.0336 184.02 27.4207C184.123 27.8077 184.147 28.2115 184.091 28.6082C184.017 29.0042 183.862 29.3809 183.636 29.7148C183.411 30.0488 183.119 30.333 182.779 30.5499C182.287 30.8812 181.712 31.0686 181.12 31.0911L181.221 33.4396C181.225 33.5428 181.203 33.6453 181.157 33.7375C181.11 33.8298 181.041 33.9089 180.956 33.9674C180.871 34.026 180.773 34.0621 180.67 34.0725C180.567 34.0828 180.464 34.0671 180.369 34.0267L180.385 34.0398Z" fill="#FF725E"/>
<path d="M181.284 35.2862C181.291 35.3853 181.268 35.4842 181.219 35.5703C181.169 35.6565 181.096 35.7262 181.007 35.7704C180.918 35.8147 180.818 35.8315 180.719 35.8189C180.621 35.8063 180.528 35.7648 180.453 35.6995C180.379 35.6343 180.325 35.5484 180.299 35.4525C180.273 35.3567 180.276 35.2553 180.307 35.1612C180.339 35.0671 180.398 34.9845 180.477 34.9238C180.555 34.8632 180.65 34.8272 180.749 34.8205C180.815 34.8156 180.881 34.8238 180.943 34.8446C181.006 34.8654 181.064 34.8984 181.114 34.9417C181.163 34.9851 181.204 35.0378 181.233 35.0969C181.262 35.1561 181.28 35.2204 181.284 35.2862Z" fill="#FF725E"/>
<path d="M169.846 29.7463C169.86 29.6814 169.87 29.6157 169.876 29.5495C169.876 29.4052 169.912 29.2215 169.938 28.9624C169.97 28.6443 170.024 28.3287 170.099 28.0178C170.142 27.8341 170.164 27.6307 170.23 27.4241C170.296 27.2174 170.361 26.9944 170.433 26.7681C170.813 25.6467 171.367 24.592 172.073 23.6422C173 22.4125 174.174 21.3911 175.521 20.6443C176.287 20.2122 177.103 19.8752 177.951 19.6406C178.866 19.3981 179.809 19.2746 180.756 19.2733C181.254 19.2653 181.753 19.2916 182.248 19.352C182.501 19.3782 182.75 19.4438 183.002 19.4865C183.258 19.5302 183.51 19.5916 183.757 19.6702C184.791 19.9591 185.774 20.4049 186.673 20.992C188.671 22.288 190.193 24.1992 191.009 26.4368C191.448 27.6354 191.67 28.9027 191.665 30.1793C191.678 31.4944 191.446 32.8004 190.979 34.03L190.832 34.4039L190.812 34.4531L190.832 34.5023C191.655 36.3949 192.472 38.2546 193.243 40.0554L193.38 39.8979L188.46 38.0119L188.401 37.989L188.352 38.0349C187.051 39.296 185.457 40.2154 183.714 40.7114C182.225 41.1214 180.665 41.2109 179.139 40.974C177.612 40.7371 176.153 40.1792 174.858 39.337C173.797 38.6414 172.862 37.7708 172.093 36.7622C170.978 35.2901 170.256 33.5587 169.994 31.7307C169.955 31.4027 169.922 31.1272 169.892 30.8779C169.863 30.6286 169.892 30.4253 169.876 30.2514C169.859 30.0776 169.876 29.9628 169.876 29.8677C169.892 29.8652 169.907 29.8566 169.917 29.8437C169.928 29.8307 169.933 29.8144 169.931 29.7979C169.93 29.7814 169.923 29.766 169.911 29.7547C169.898 29.7435 169.883 29.7372 169.866 29.7372C169.849 29.7372 169.834 29.7435 169.821 29.7547C169.809 29.766 169.802 29.7814 169.801 29.7979C169.799 29.8144 169.804 29.8307 169.815 29.8437C169.825 29.8566 169.84 29.8652 169.856 29.8677C169.856 29.9628 169.856 30.0907 169.856 30.2514C169.856 30.4122 169.856 30.6352 169.856 30.8845C169.856 31.1338 169.912 31.4191 169.945 31.7438C170.053 32.5328 170.241 33.3087 170.506 34.0595C170.881 35.0511 171.386 35.9886 172.008 36.8475C172.78 37.874 173.722 38.7614 174.793 39.4715C176.104 40.3347 177.583 40.9092 179.133 41.1569C180.683 41.4046 182.268 41.3198 183.783 40.9082C185.547 40.4071 187.16 39.4788 188.48 38.2054L188.372 38.2284L193.292 40.1242L193.538 40.2194L193.43 39.9668C192.649 38.1661 191.842 36.3096 191.022 34.4138V34.5089L191.173 34.1251C191.651 32.8687 191.89 31.5335 191.875 30.1891C191.885 28.8854 191.663 27.5904 191.219 26.3646C190.385 24.0825 188.829 22.1349 186.788 20.8182C185.866 20.2173 184.857 19.7636 183.796 19.4734C183.545 19.3939 183.289 19.3336 183.029 19.293C182.773 19.247 182.52 19.1814 182.264 19.1585C181.763 19.0962 181.258 19.0677 180.752 19.0732C179.79 19.0773 178.833 19.2074 177.905 19.4602C177.046 19.7042 176.219 20.05 175.442 20.4902C174.082 21.2552 172.9 22.3006 171.975 23.557C171.27 24.5224 170.724 25.5943 170.358 26.732C170.289 26.9682 170.224 27.1945 170.164 27.388C170.112 27.5857 170.071 27.7861 170.04 27.9882C169.969 28.3013 169.923 28.6193 169.902 28.9394C169.882 29.192 169.869 29.3855 169.859 29.5298C169.846 29.6011 169.841 29.6739 169.846 29.7463Z" fill="#263238"/>
</g>
<text opacity="0.5" fill="#8D9091" xml:space="preserve" style="white-space: pre" font-family="Poppins" font-size="16" letter-spacing="0em"><tspan x="8.65625" y="205.6">Nothing to show at the moment</tspan></text>
<defs>
<clipPath id="clip0">
<rect width="246" height="164" fill="white" transform="translate(13)"/>
</clipPath>
</defs>
</svg>
