<svg width="38" height="38" viewBox="0 0 38 38" fill="none" xmlns="http://www.w3.org/2000/svg">
<rect width="38" height="38" fill="#E5E5E5"/>
<g clip-path="url(#clip0)">
<rect x="-848" y="-1488" width="1440" height="2302" rx="12" fill="white"/>
<rect opacity="0.05" x="-848" y="-1225" width="1440" height="2205" rx="4" fill="#F5F6F9"/>
<rect x="-519.5" y="-1198.5" width="1089" height="1997" rx="3.5" fill="white" stroke="#EFEFEF"/>
<path d="M19.5 23C19.5 18.8579 22.8579 15.5 27 15.5H531C535.142 15.5 538.5 18.8579 538.5 23V83C538.5 87.1421 535.142 90.5 531 90.5H27C22.8579 90.5 19.5 87.1421 19.5 83V23Z" stroke="#F5F6F9"/>
<rect width="232" height="32" transform="translate(37 -1)" fill="white"/>
<circle cx="19" cy="19" r="19" fill="white"/>
<circle cx="19" cy="19" r="15.5" stroke="#F5F6F9"/>
<path d="M11.608 14.76V13.432H14.616V25H13.144V14.76H11.608ZM17.597 19.096C17.597 17.2613 17.8957 15.832 18.493 14.808C19.0903 13.7733 20.1357 13.256 21.629 13.256C23.1117 13.256 24.1517 13.7733 24.749 14.808C25.3463 15.832 25.645 17.2613 25.645 19.096C25.645 20.9627 25.3463 22.4133 24.749 23.448C24.1517 24.4827 23.1117 25 21.629 25C20.1357 25 19.0903 24.4827 18.493 23.448C17.8957 22.4133 17.597 20.9627 17.597 19.096ZM24.205 19.096C24.205 18.168 24.141 17.384 24.013 16.744C23.8957 16.0933 23.645 15.5707 23.261 15.176C22.8877 14.7813 22.3437 14.584 21.629 14.584C20.9037 14.584 20.349 14.7813 19.965 15.176C19.5917 15.5707 19.341 16.0933 19.213 16.744C19.0957 17.384 19.037 18.168 19.037 19.096C19.037 20.056 19.0957 20.8613 19.213 21.512C19.341 22.1627 19.5917 22.6853 19.965 23.08C20.349 23.4747 20.9037 23.672 21.629 23.672C22.3437 23.672 22.8877 23.4747 23.261 23.08C23.645 22.6853 23.8957 22.1627 24.013 21.512C24.141 20.8613 24.205 20.056 24.205 19.096Z" fill="#1B2124"/>
</g>
<defs>
<clipPath id="clip0">
<rect x="-848" y="-1488" width="1440" height="2302" rx="12" fill="white"/>
</clipPath>
</defs>
</svg>
