<svg width="32" height="32" viewBox="0 0 32 32" fill="none" xmlns="http://www.w3.org/2000/svg">
<rect width="32" height="32" fill="#E5E5E5"/>
<g clip-path="url(#clip0)">
<rect x="-851" y="-563" width="1440" height="2302" rx="12" fill="white"/>
<rect opacity="0.05" x="-851" y="-300" width="1440" height="2205" rx="4" fill="#F5F6F9"/>
<rect x="-522.5" y="-273.5" width="1089" height="1997" rx="3.5" fill="white" stroke="#EFEFEF"/>
<path class='stroke' d="M16.5 20C16.5 15.8579 19.8579 12.5 24 12.5H528C532.142 12.5 535.5 15.8579 535.5 20V80C535.5 84.1421 532.142 87.5 528 87.5H24C19.8579 87.5 16.5 84.1421 16.5 80V20Z" stroke="#4834D4"/>
<circle cx="16" cy="16" r="19" fill="white"/>
<circle class='stroke' opacity="0.25" cx="16" cy="16" r="15.5" fill="#CDC6FF" stroke="#4834D4"/>
<path class='fill' d="M11.816 20.832C13.1707 19.744 14.232 18.8533 15 18.16C15.768 17.456 16.4133 16.7253 16.936 15.968C17.4693 15.2 17.736 14.448 17.736 13.712C17.736 13.0187 17.5653 12.4747 17.224 12.08C16.8933 11.6747 16.3547 11.472 15.608 11.472C14.8827 11.472 14.3173 11.7013 13.912 12.16C13.5173 12.608 13.304 13.2107 13.272 13.968H11.864C11.9067 12.7733 12.2693 11.8507 12.952 11.2C13.6347 10.5493 14.5147 10.224 15.592 10.224C16.6907 10.224 17.56 10.528 18.2 11.136C18.8507 11.744 19.176 12.5813 19.176 13.648C19.176 14.5333 18.9093 15.3973 18.376 16.24C17.8533 17.072 17.256 17.808 16.584 18.448C15.912 19.0773 15.0533 19.8133 14.008 20.656H19.512V21.872H11.816V20.832Z" fill="#4834D4"/>
</g>
<defs>
<clipPath id="clip0">
<rect x="-851" y="-563" width="1440" height="2302" rx="12" fill="white"/>
</clipPath>
</defs>
</svg>
