<svg width="32" height="32" viewBox="0 0 32 32" fill="none" xmlns="http://www.w3.org/2000/svg">
<rect width="32" height="32" fill="#E5E5E5"/>
<g clip-path="url(#clip0)">
<rect x="-851" y="-679" width="1440" height="2302" rx="12" fill="white"/>
<rect opacity="0.05" x="-851" y="-416" width="1440" height="2205" rx="4" fill="#F5F6F9"/>
<rect x="-522.5" y="-389.5" width="1089" height="1997" rx="3.5" fill="white" stroke="#EFEFEF"/>
<path d="M16.5 20C16.5 15.8579 19.8579 12.5 24 12.5H528C532.142 12.5 535.5 15.8579 535.5 20V80C535.5 84.1421 532.142 87.5 528 87.5H24C19.8579 87.5 16.5 84.1421 16.5 80V20Z" stroke="#F5F6F9"/>
<circle cx="16" cy="16" r="19" fill="white"/>
<circle cx="16" cy="16" r="15.5" stroke="#F5F6F9"/>
<path d="M11.96 13.344C12.0347 12.3627 12.4133 11.5947 13.096 11.04C13.7787 10.4853 14.664 10.208 15.752 10.208C16.4773 10.208 17.1013 10.3413 17.624 10.608C18.1573 10.864 18.5573 11.216 18.824 11.664C19.1013 12.112 19.24 12.6187 19.24 13.184C19.24 13.8453 19.048 14.416 18.664 14.896C18.2907 15.376 17.8 15.6853 17.192 15.824V15.904C17.8853 16.0747 18.4347 16.4107 18.84 16.912C19.2453 17.4133 19.448 18.0693 19.448 18.88C19.448 19.488 19.3093 20.0373 19.032 20.528C18.7547 21.008 18.3387 21.3867 17.784 21.664C17.2293 21.9413 16.5627 22.08 15.784 22.08C14.6533 22.08 13.7253 21.7867 13 21.2C12.2747 20.6027 11.8693 19.76 11.784 18.672H13.192C13.2667 19.312 13.528 19.8347 13.976 20.24C14.424 20.6453 15.0213 20.848 15.768 20.848C16.5147 20.848 17.08 20.656 17.464 20.272C17.8587 19.8773 18.056 19.3707 18.056 18.752C18.056 17.952 17.7893 17.376 17.256 17.024C16.7227 16.672 15.9173 16.496 14.84 16.496H14.472V15.28H14.856C15.8373 15.2693 16.5787 15.1093 17.08 14.8C17.5813 14.48 17.832 13.9893 17.832 13.328C17.832 12.7627 17.6453 12.3093 17.272 11.968C16.9093 11.6267 16.3867 11.456 15.704 11.456C15.0427 11.456 14.5093 11.6267 14.104 11.968C13.6987 12.3093 13.4587 12.768 13.384 13.344H11.96Z" fill="#1B2124"/>
</g>
<defs>
<clipPath id="clip0">
<rect x="-851" y="-679" width="1440" height="2302" rx="12" fill="white"/>
</clipPath>
</defs>
</svg>
