<svg width="38" height="38" viewBox="0 0 38 38" fill="none" xmlns="http://www.w3.org/2000/svg">
<rect width="38" height="38" fill="#E5E5E5"/>
<g clip-path="url(#clip0)">
<rect x="-848" y="-1024" width="1440" height="2302" rx="12" fill="white"/>
<rect opacity="0.05" x="-848" y="-761" width="1440" height="2205" rx="4" fill="#F5F6F9"/>
<rect x="-519.5" y="-734.5" width="1089" height="1997" rx="3.5" fill="white" stroke="#EFEFEF"/>
<path d="M19.5 23C19.5 18.8579 22.8579 15.5 27 15.5H531C535.142 15.5 538.5 18.8579 538.5 23V83C538.5 87.1421 535.142 90.5 531 90.5H27C22.8579 90.5 19.5 87.1421 19.5 83V23Z" stroke="#F5F6F9"/>
<rect width="239" height="32" transform="translate(37 -1)" fill="white"/>
<circle cx="19" cy="19" r="19" fill="white"/>
<circle cx="19" cy="19" r="15.5" stroke="#F5F6F9"/>
<path d="M21.44 16.184C21.2053 15 20.4747 14.408 19.248 14.408C18.2987 14.408 17.5893 14.776 17.12 15.512C16.6507 16.2373 16.4213 17.4373 16.432 19.112C16.6773 18.5573 17.0827 18.1253 17.648 17.816C18.224 17.496 18.864 17.336 19.568 17.336C20.6667 17.336 21.5413 17.6773 22.192 18.36C22.8533 19.0427 23.184 19.9867 23.184 21.192C23.184 21.9173 23.04 22.568 22.752 23.144C22.4747 23.72 22.048 24.1787 21.472 24.52C20.9067 24.8613 20.2187 25.032 19.408 25.032C18.3093 25.032 17.4507 24.7867 16.832 24.296C16.2133 23.8053 15.7813 23.128 15.536 22.264C15.2907 21.4 15.168 20.3333 15.168 19.064C15.168 15.1493 16.5333 13.192 19.264 13.192C20.3093 13.192 21.1307 13.4747 21.728 14.04C22.3253 14.6053 22.6773 15.32 22.784 16.184H21.44ZM19.264 18.568C18.8053 18.568 18.3733 18.664 17.968 18.856C17.5627 19.0373 17.232 19.32 16.976 19.704C16.7307 20.0773 16.608 20.536 16.608 21.08C16.608 21.8907 16.8427 22.552 17.312 23.064C17.7813 23.5653 18.4533 23.816 19.328 23.816C20.0747 23.816 20.6667 23.5867 21.104 23.128C21.552 22.6587 21.776 22.0293 21.776 21.24C21.776 20.408 21.5627 19.7573 21.136 19.288C20.7093 18.808 20.0853 18.568 19.264 18.568Z" fill="#1B2124"/>
</g>
<defs>
<clipPath id="clip0">
<rect x="-848" y="-1024" width="1440" height="2302" rx="12" fill="white"/>
</clipPath>
</defs>
</svg>
