<svg width="32" height="32" viewBox="0 0 32 32" fill="none" xmlns="http://www.w3.org/2000/svg">
<rect width="32" height="32" fill="#E5E5E5"/>
<g clip-path="url(#clip0)">
<rect x="-851" y="-1143" width="1440" height="2302" rx="12" fill="white"/>
<rect opacity="0.05" x="-851" y="-880" width="1440" height="2205" rx="4" fill="#F5F6F9"/>
<rect x="-522.5" y="-853.5" width="1089" height="1997" rx="3.5" fill="white" stroke="#EFEFEF"/>
<path d="M16.5 20C16.5 15.8579 19.8579 12.5 24 12.5H528C532.142 12.5 535.5 15.8579 535.5 20V80C535.5 84.1421 532.142 87.5 528 87.5H24C19.8579 87.5 16.5 84.1421 16.5 80V20Z" stroke="#F5F6F9"/>
<circle cx="16" cy="16" r="19" fill="white"/>
<circle cx="16" cy="16" r="15.5" stroke="#F5F6F9"/>
<path d="M20.112 11.568L15.664 22H14.192L18.704 11.712H12.528V10.464H20.112V11.568Z" fill="#1B2124"/>
</g>
<defs>
<clipPath id="clip0">
<rect x="-851" y="-1143" width="1440" height="2302" rx="12" fill="white"/>
</clipPath>
</defs>
</svg>
