<svg width="32" height="32" viewBox="0 0 32 32" fill="none" xmlns="http://www.w3.org/2000/svg">
<rect width="32" height="32" fill="#E5E5E5"/>
<g clip-path="url(#clip0)">
<rect x="-851" y="-1259" width="1440" height="2302" rx="12" fill="white"/>
<rect opacity="0.05" x="-851" y="-996" width="1440" height="2205" rx="4" fill="#F5F6F9"/>
<rect x="-522.5" y="-969.5" width="1089" height="1997" rx="3.5" fill="white" stroke="#EFEFEF"/>
<path d="M16.5 20C16.5 15.8579 19.8579 12.5 24 12.5H528C532.142 12.5 535.5 15.8579 535.5 20V80C535.5 84.1421 532.142 87.5 528 87.5H24C19.8579 87.5 16.5 84.1421 16.5 80V20Z" stroke="#F5F6F9"/>
<circle cx="16" cy="16" r="19" fill="white"/>
<circle cx="16" cy="16" r="15.5" stroke="#F5F6F9"/>
<path d="M14.104 15.984C13.5067 15.7493 13.048 15.408 12.728 14.96C12.408 14.512 12.248 13.968 12.248 13.328C12.248 12.752 12.392 12.2347 12.68 11.776C12.968 11.3067 13.3947 10.9387 13.96 10.672C14.536 10.3947 15.2293 10.256 16.04 10.256C16.8507 10.256 17.5387 10.3947 18.104 10.672C18.68 10.9387 19.112 11.3067 19.4 11.776C19.6987 12.2347 19.848 12.752 19.848 13.328C19.848 13.9467 19.6827 14.4907 19.352 14.96C19.0213 15.4187 18.568 15.76 17.992 15.984C18.6533 16.1867 19.176 16.544 19.56 17.056C19.9547 17.5573 20.152 18.1653 20.152 18.88C20.152 19.5733 19.9813 20.1813 19.64 20.704C19.2987 21.216 18.8133 21.616 18.184 21.904C17.5653 22.1813 16.8507 22.32 16.04 22.32C15.2293 22.32 14.5147 22.1813 13.896 21.904C13.288 21.616 12.8133 21.216 12.472 20.704C12.1307 20.1813 11.96 19.5733 11.96 18.88C11.96 18.1653 12.152 17.552 12.536 17.04C12.92 16.528 13.4427 16.176 14.104 15.984ZM18.44 13.504C18.44 12.8533 18.2267 12.352 17.8 12C17.3733 11.648 16.7867 11.472 16.04 11.472C15.304 11.472 14.7227 11.648 14.296 12C13.8693 12.352 13.656 12.8587 13.656 13.52C13.656 14.1173 13.8747 14.5973 14.312 14.96C14.76 15.3227 15.336 15.504 16.04 15.504C16.7547 15.504 17.3307 15.3227 17.768 14.96C18.216 14.5867 18.44 14.1013 18.44 13.504ZM16.04 16.624C15.2507 16.624 14.6053 16.8107 14.104 17.184C13.6027 17.5467 13.352 18.096 13.352 18.832C13.352 19.5147 13.592 20.064 14.072 20.48C14.5627 20.896 15.2187 21.104 16.04 21.104C16.8613 21.104 17.512 20.896 17.992 20.48C18.472 20.064 18.712 19.5147 18.712 18.832C18.712 18.1173 18.4667 17.5733 17.976 17.2C17.4853 16.816 16.84 16.624 16.04 16.624Z" fill="#1B2124"/>
</g>
<defs>
<clipPath id="clip0">
<rect x="-851" y="-1259" width="1440" height="2302" rx="12" fill="white"/>
</clipPath>
</defs>
</svg>
