<svg width="32" height="32" viewBox="0 0 32 32" fill="none" xmlns="http://www.w3.org/2000/svg">
<rect width="32" height="32" fill="#E5E5E5"/>
<g clip-path="url(#clip0)">
<rect x="-851" y="-1375" width="1440" height="2302" rx="12" fill="white"/>
<rect opacity="0.05" x="-851" y="-1112" width="1440" height="2205" rx="4" fill="#F5F6F9"/>
<rect x="-522.5" y="-1085.5" width="1089" height="1997" rx="3.5" fill="white" stroke="#EFEFEF"/>
<path d="M16.5 20C16.5 15.8579 19.8579 12.5 24 12.5H528C532.142 12.5 535.5 15.8579 535.5 20V80C535.5 84.1421 532.142 87.5 528 87.5H24C19.8579 87.5 16.5 84.1421 16.5 80V20Z" stroke="#F5F6F9"/>
<circle cx="16" cy="16" r="19" fill="white"/>
<circle cx="16" cy="16" r="15.5" stroke="#F5F6F9"/>
<path d="M13.864 18.896C13.9707 19.504 14.216 19.9733 14.6 20.304C14.9947 20.6347 15.5227 20.8 16.184 20.8C17.0693 20.8 17.72 20.4533 18.136 19.76C18.5627 19.0667 18.7653 17.8987 18.744 16.256C18.52 16.736 18.1467 17.1147 17.624 17.392C17.1013 17.6587 16.52 17.792 15.88 17.792C15.1653 17.792 14.5253 17.648 13.96 17.36C13.4053 17.0613 12.968 16.6293 12.648 16.064C12.328 15.4987 12.168 14.816 12.168 14.016C12.168 12.8747 12.4987 11.9573 13.16 11.264C13.8213 10.56 14.76 10.208 15.976 10.208C17.4693 10.208 18.5147 10.6933 19.112 11.664C19.72 12.6347 20.024 14.08 20.024 16C20.024 17.344 19.9013 18.4533 19.656 19.328C19.4213 20.2027 19.016 20.8693 18.44 21.328C17.8747 21.7867 17.096 22.016 16.104 22.016C15.016 22.016 14.168 21.7227 13.56 21.136C12.952 20.5493 12.6053 19.8027 12.52 18.896H13.864ZM16.12 16.56C16.8347 16.56 17.4213 16.3413 17.88 15.904C18.3387 15.456 18.568 14.8533 18.568 14.096C18.568 13.296 18.344 12.6507 17.896 12.16C17.448 11.6693 16.8187 11.424 16.008 11.424C15.2613 11.424 14.664 11.6587 14.216 12.128C13.7787 12.5973 13.56 13.216 13.56 13.984C13.56 14.7627 13.7787 15.3867 14.216 15.856C14.6533 16.3253 15.288 16.56 16.12 16.56Z" fill="#1B2124"/>
</g>
<defs>
<clipPath id="clip0">
<rect x="-851" y="-1375" width="1440" height="2302" rx="12" fill="white"/>
</clipPath>
</defs>
</svg>
