<svg width="24" height="24" viewBox="0 0 24 24" fill="none" xmlns="http://www.w3.org/2000/svg">
<path d="M17.5453 14.9242C16.7532 16.012 15.4702 16.7205 14.0247 16.7205H11.9963C11.2956 16.7205 10.6989 16.2757 10.473 15.6531C10.1941 15.5699 9.9206 15.4619 9.65372 15.3293C9.08852 15.0485 8.57533 14.668 8.12357 14.1967C5.19319 14.8405 3 17.4516 3 20.5754V20.9837C3 21.5449 3.45502 22 4.0163 22H19.7843C20.3456 22 20.8006 21.5449 20.8006 20.9837V20.5754C20.8006 18.1622 19.4917 16.055 17.5453 14.9242Z" fill="#BDC4DB"/>
<path d="M7.04297 12.102C7.47976 12.102 7.85995 11.8599 8.05692 11.5026C8.0621 11.5168 8.06736 11.5308 8.07267 11.5449C8.07423 11.5491 8.0758 11.5533 8.07737 11.5575C8.53944 12.7738 9.43852 13.7934 10.6241 14.2389C10.9108 13.7833 11.4178 13.4803 11.9959 13.4803H14.0243C14.2266 13.4803 14.4149 13.4232 14.58 13.3309C14.8572 13.1759 15.1065 12.7826 15.2353 12.5742C15.4413 12.2406 15.6009 11.8872 15.7425 11.502C15.822 11.6465 15.9314 11.7721 16.0624 11.8706V12.3679C16.0624 13.4918 15.1481 14.4061 14.0242 14.4061H11.9959C11.6124 14.4061 11.3016 14.717 11.3016 15.1005C11.3016 15.484 11.6124 15.7948 11.9959 15.7948H14.0242C15.9138 15.7948 17.4511 14.2575 17.4511 12.3679V11.8706C17.7322 11.6594 17.914 11.3234 17.914 10.9448V8.85113V8.04829C17.914 7.66193 17.7245 7.32007 17.4336 7.10987C17.2079 4.25447 14.8123 1.99997 11.8999 1.99997C8.98741 1.99997 6.59182 4.25447 6.36618 7.10983C6.07523 7.32003 5.88574 7.66193 5.88574 8.04825V10.9447C5.88574 11.5856 6.40642 12.102 7.04297 12.102ZM11.8999 3.38867C14.0559 3.38867 15.8341 5.03629 16.042 7.13855C15.9055 7.24589 15.7938 7.38307 15.7168 7.54049C15.0616 5.83117 13.599 4.64109 11.8998 4.64109C10.164 4.64109 8.72488 5.87207 8.08546 7.53366C8.08459 7.53592 8.08376 7.53823 8.08289 7.54053C8.00588 7.38312 7.8941 7.24593 7.75766 7.13859C7.96563 5.03629 9.74387 3.38867 11.8999 3.38867Z" fill="#BDC4DB"/>
</svg>
