<svg width="24" height="24" viewBox="0 0 24 24" fill="none" xmlns="http://www.w3.org/2000/svg">
<path d="M17.9503 12.78C17.9803 12.53 18.0003 12.27 18.0003 12C18.0003 11.73 17.9803 11.47 17.9403 11.22L19.6303 9.89997C19.7803 9.77997 19.8203 9.55997 19.7303 9.38997L18.1303 6.61997C18.0303 6.43997 17.8203 6.37997 17.6403 6.43997L15.6503 7.23997C15.2303 6.91997 14.7903 6.65997 14.3003 6.45997L14.0003 4.33997C13.9703 4.13997 13.8003 3.99997 13.6003 3.99997H10.4003C10.2003 3.99997 10.0403 4.13997 10.0103 4.33997L9.71025 6.45997C9.22025 6.65997 8.77025 6.92997 8.36025 7.23997L6.37025 6.43997C6.19025 6.36997 5.98025 6.43997 5.88025 6.61997L4.28025 9.38997C4.18025 9.56997 4.22025 9.77997 4.38025 9.89997L6.07025 11.22C6.03025 11.47 6.00025 11.74 6.00025 12C6.00025 12.26 6.02025 12.53 6.06025 12.78L4.37025 14.1C4.22025 14.22 4.18025 14.44 4.27025 14.61L5.87025 17.38C5.97025 17.56 6.18025 17.62 6.36025 17.56L8.35025 16.76C8.77025 17.08 9.21025 17.34 9.70025 17.54L10.0003 19.66C10.0403 19.86 10.2003 20 10.4003 20H13.6003C13.8003 20 13.9703 19.86 13.9903 19.66L14.2903 17.54C14.7803 17.34 15.2303 17.07 15.6403 16.76L17.6303 17.56C17.8103 17.63 18.0203 17.56 18.1203 17.38L19.7203 14.61C19.8203 14.43 19.7803 14.22 19.6203 14.1L17.9503 12.78ZM12.0003 15C10.3503 15 9.00025 13.65 9.00025 12C9.00025 10.35 10.3503 8.99997 12.0003 8.99997C13.6503 8.99997 15.0003 10.35 15.0003 12C15.0003 13.65 13.6503 15 12.0003 15Z" fill="#1B2124"/>
<path d="M17.9503 12.78C17.9803 12.53 18.0003 12.27 18.0003 12C18.0003 11.73 17.9803 11.47 17.9403 11.22L19.6303 9.89997C19.7803 9.77997 19.8203 9.55997 19.7303 9.38997L18.1303 6.61997C18.0303 6.43997 17.8203 6.37997 17.6403 6.43997L15.6503 7.23997C15.2303 6.91997 14.7903 6.65997 14.3003 6.45997L14.0003 4.33997C13.9703 4.13997 13.8003 3.99997 13.6003 3.99997H10.4003C10.2003 3.99997 10.0403 4.13997 10.0103 4.33997L9.71025 6.45997C9.22025 6.65997 8.77025 6.92997 8.36025 7.23997L6.37025 6.43997C6.19025 6.36997 5.98025 6.43997 5.88025 6.61997L4.28025 9.38997C4.18025 9.56997 4.22025 9.77997 4.38025 9.89997L6.07025 11.22C6.03025 11.47 6.00025 11.74 6.00025 12C6.00025 12.26 6.02025 12.53 6.06025 12.78L4.37025 14.1C4.22025 14.22 4.18025 14.44 4.27025 14.61L5.87025 17.38C5.97025 17.56 6.18025 17.62 6.36025 17.56L8.35025 16.76C8.77025 17.08 9.21025 17.34 9.70025 17.54L10.0003 19.66C10.0403 19.86 10.2003 20 10.4003 20H13.6003C13.8003 20 13.9703 19.86 13.9903 19.66L14.2903 17.54C14.7803 17.34 15.2303 17.07 15.6403 16.76L17.6303 17.56C17.8103 17.63 18.0203 17.56 18.1203 17.38L19.7203 14.61C19.8203 14.43 19.7803 14.22 19.6203 14.1L17.9503 12.78ZM12.0003 15C10.3503 15 9.00025 13.65 9.00025 12C9.00025 10.35 10.3503 8.99997 12.0003 8.99997C13.6503 8.99997 15.0003 10.35 15.0003 12C15.0003 13.65 13.6503 15 12.0003 15Z" fill="#BDC4DB"/>
</svg>
