<svg width="24" height="24" viewBox="0 0 24 24" fill="none" xmlns="http://www.w3.org/2000/svg">
<path d="M12.1271 2H2.78201C2.35011 2 2 2.35011 2 2.78201V8.99903C2 9.43094 2.35011 9.78105 2.78201 9.78105H6.68188L9.40721 12.1506C9.48396 12.2173 9.57374 12.2473 9.66156 12.2473C9.86328 12.2473 10.0548 12.0892 10.0548 11.8555V9.78105H12.1271C12.559 9.78105 12.9091 9.43094 12.9091 8.99903V2.78201C12.9091 2.35011 12.559 2 12.1271 2ZM4.34604 4.15054H7.55231C7.87622 4.15054 8.13882 4.41314 8.13882 4.73705C8.13882 5.06096 7.87622 5.32356 7.55231 5.32356H4.34604C4.02213 5.32356 3.75953 5.06096 3.75953 4.73705C3.75953 4.41314 4.02213 4.15054 4.34604 4.15054ZM10.5631 7.66961H4.34604C4.02213 7.66961 3.75953 7.40701 3.75953 7.0831C3.75953 6.75919 4.02213 6.49659 4.34604 6.49659H10.5631C10.887 6.49659 11.1496 6.75919 11.1496 7.0831C11.1496 7.40701 10.887 7.66961 10.5631 7.66961Z" fill="#BDC4DB"/>
<path d="M17.1691 15.2571C18.4291 15.2571 19.4505 14.2356 19.4505 12.9757C19.4505 11.7157 18.4291 10.6942 17.1691 10.6942C15.9091 10.6942 14.8877 11.7157 14.8877 12.9757C14.8877 14.2356 15.9091 15.2571 17.1691 15.2571Z" fill="#BDC4DB"/>
<path d="M21.9675 21.5826L21.7152 19.4501C21.5114 17.7277 20.0512 16.4301 18.3168 16.4301H15.9465C14.2121 16.4301 12.7518 17.7277 12.548 19.4501L12.2957 21.5826C12.2682 21.8152 12.4499 22.0196 12.684 22.0196H21.5792C21.8134 22.0196 21.995 21.8152 21.9675 21.5826Z" fill="#BDC4DB"/>
</svg>
